:SAMPLES-PER-SECOND 30
:FULLY-SPECIFIED
:DEGREES
416
root  -44.8386 39.078 0.372365 -172.995 -33.3916 173.677
RightUpLeg  -29.6343 -6.04937 -1.41409
RightLeg  34.3308 -2.79722 -2.31659
RightFoot  -6.70024 0.257892 -7.44833
RightToes  0.000482159 0.542163 -0.142577
Spine  42.0312 -5.70596 9.64151
Spine1  9.11898 -5.21157 8.83862
HEad  -3.30669 -3.86271 1.75717
LeftShoulder1  10.4625 -18.3054 -41.5952
LeftArm  -19.2278 -34.337 -28.903
LeftForeArm  12.7922 -32.6509 -6.48918
LeftHand  -0.25398 0.0180481 5.50724
RightShoulder  4.57195 10.8275 25.8174
RightArm  -3.28305 16.7768 41.8027
RightForeArm  -14.5585 65.0953 27.1529
RightHand  -2.70362 6.88085 -25.5736
LeftUpLeg  -35.4605 24.7414 0.101791
LeftLeg  41.2891 1.88846 2.18253
LeftFoot  -0.962452 0.422424 -4.58271
LeftToes  1.06247e-005 4.65854e-005 -8.18501e-006
417
root  -46.1983 39.0642 0.161226 -173.015 -29.8351 174.132
RightUpLeg  -29.4609 -3.06739 -3.09781
RightLeg  35.5917 -2.39181 -2.10354
RightFoot  -7.94003 0.115855 -5.70212
RightToes  0.000482159 0.542163 -0.142577
Spine  43.2055 -5.24064 8.91597
Spine1  9.48023 -4.55154 8.05925
HEad  -3.69044 -3.92244 2.0814
LeftShoulder1  10.7259 -18.5079 -42.2988
LeftArm  -20.2366 -35.7266 -25.8806
LeftForeArm  11.8416 -30.0485 -5.89313
LeftHand  -0.25398 0.0180481 5.50724
RightShoulder  4.38359 11.1495 23.7331
RightArm  -1.25181 21.0903 44.7965
RightForeArm  -20.0613 58.8872 20.7093
RightHand  -2.72102 7.53642 -24.4921
LeftUpLeg  -33.9497 24.7605 2.28333
LeftLeg  28.4775 1.86525 1.6002
LeftFoot  -0.43421 0.447343 -4.65657
LeftToes  1.06247e-005 4.65854e-005 -8.18501e-006
418
root  -47.6293 38.9584 -0.0389107 -173.37 -26.6076 174.947
RightUpLeg  -29.3734 -0.405005 -4.56625
RightLeg  37.1289 -1.64145 -1.6024
RightFoot  -9.24441 0.0136588 -4.16328
RightToes  0.000482159 0.542163 -0.142577
Spine  44.1883 -5.43784 9.02922
Spine1  10.3632 -4.0036 6.28964
HEad  -3.92999 -3.92073 2.68628
LeftShoulder1  10.8156 -18.7119 -42.2566
LeftArm  -20.9646 -36.9597 -23.5948
LeftForeArm  10.7809 -27.4597 -5.33992
LeftHand  -0.25398 0.0180481 5.50724
RightShoulder  4.28595 11.4974 22.3052
RightArm  0.724273 25.361 47.4503
RightForeArm  -23.4311 52.5918 16.3963
RightHand  -2.61924 7.83644 -23.1078
LeftUpLeg  -30.9229 21.5809 6.41473
LeftLeg  15.8552 4.51241 0.838795
LeftFoot  -1.39147 0.403206 -4.54109
LeftToes  1.06247e-005 4.65854e-005 -8.18501e-006
419
root  -49.1857 38.756 -0.228205 -173.876 -23.2402 175.991
RightUpLeg  -29.548 2.32463 -6.01885
RightLeg  39.0177 -0.927909 -1.0877
RightFoot  -10.6104 -0.0544943 -2.68557
RightToes  0.000482159 0.542163 -0.142577
Spine  44.9622 -6.05618 9.92357
Spine1  11.309 -3.25095 3.42958
HEad  -3.75224 -4.08744 3.51488
LeftShoulder1  10.7868 -19.062 -41.4274
LeftArm  -21.7347 -37.9865 -22.3565
LeftForeArm  9.82741 -24.7687 -4.78881
LeftHand  -0.25398 0.0180481 5.50724
RightShoulder  4.3258 11.7173 22.1454
RightArm  2.82377 29.5688 49.1948
RightForeArm  -25.4452 46.44 13.3339
RightHand  -2.46827 8.02453 -21.5479
LeftUpLeg  -26.6353 13.2643 13.53
LeftLeg  5.96141 13.8741 -1.21202
LeftFoot  -2.64954 0.39048 -4.94605
LeftToes  1.06247e-005 4.65854e-005 -8.18501e-006
420
root  -50.8535 38.5352 -0.384993 -173.931 -19.9347 176.665
RightUpLeg  -29.941 4.96217 -8.05291
RightLeg  40.5235 -0.721502 -0.948305
RightFoot  -11.9115 -0.0846695 -0.922968
RightToes  0.000482159 0.542163 -0.142577
Spine  45.8503 -6.54562 10.4113
Spine1  11.9531 -2.55755 0.990427
HEad  -3.33347 -4.45291 3.91
LeftShoulder1  10.873 -19.4347 -41.044
LeftArm  -22.7633 -38.8188 -21.5738
LeftForeArm  9.24536 -22.3794 -4.37164
LeftHand  -0.25398 0.0180481 5.50724
RightShoulder  4.34764 11.8478 22.0396
RightArm  5.38201 33.5551 50.3392
RightForeArm  -26.8845 40.3931 10.9935
RightHand  -2.3999 8.51944 -20.27
LeftUpLeg  -25.4442 11.9457 14.6254
LeftLeg  2.30908 14.8578 -2.18424
LeftFoot  -1.38939 0.550777 -6.18493
LeftToes  1.06247e-005 4.65854e-005 -8.18501e-006
421
root  -52.5978 38.3334 -0.483529 -173.407 -17.1992 176.926
RightUpLeg  -30.5953 7.256 -10.7947
RightLeg  41.3741 -0.613414 -0.86712
RightFoot  -12.8736 -0.0663961 1.47417
RightToes  0.000482159 0.542163 -0.142577
Spine  46.8404 -6.65417 10.0947
Spine1  12.2857 -2.52582 0.73735
HEad  -3.42732 -4.7914 3.59645
LeftShoulder1  11.0177 -19.5113 -41.487
LeftArm  -24.2725 -39.868 -21
LeftForeArm  9.32909 -20.7333 -4.21272
LeftHand  -0.25398 0.0180481 5.50724
RightShoulder  4.19054 11.9978 20.6698
RightArm  8.37061 37.6452 51.3767
RightForeArm  -28.3307 34.6778 9.19531
RightHand  -2.42644 9.30937 -19.4379
LeftUpLeg  -26.9886 12.9425 13.3745
LeftLeg  5.32269 12.1099 -2.46465
LeftFoot  3.28027 1.0564 -8.29862
LeftToes  1.06247e-005 4.65854e-005 -8.18501e-006
422
root  -54.3607 38.1477 -0.533456 -172.508 -14.6995 176.984
RightUpLeg  -32.0302 9.1313 -13.9605
RightLeg  42.3087 -0.210928 -0.496363
RightFoot  -12.7882 -0.0325481 4.68936
RightToes  0.000482159 0.542163 -0.142577
Spine  47.8319 -6.52556 9.49556
Spine1  12.5275 -2.9192 1.73027
HEad  -4.49516 -5.0753 3.3752
LeftShoulder1  10.8711 -19.3506 -41.2025
LeftArm  -25.9514 -41.5431 -21.1869
LeftForeArm  9.77019 -19.6754 -4.08594
LeftHand  -0.25398 0.0180481 5.50724
RightShoulder  3.9786 12.2365 18.777
RightArm  10.9056 42.1419 51.8812
RightForeArm  -29.9874 29.939 7.93213
RightHand  -2.43877 9.97786 -18.7259
LeftUpLeg  -30.7507 18.0561 9.16254
LeftLeg  11.1382 4.9459 -2.10087
LeftFoot  8.91418 1.7917 -10.356
LeftToes  1.06247e-005 4.65854e-005 -8.18501e-006
423
root  -56.0829 38.046 -0.540281 -171.396 -11.582 176.842
RightUpLeg  -34.6793 9.80701 -16.8821
RightLeg  43.8945 -0.55531 -0.888414
RightFoot  -10.2775 -0.142008 7.27556
RightToes  0.000482159 0.542163 -0.142577
Spine  49.2551 -6.19507 9.15772
Spine1  12.6247 -2.54443 1.43453
HEad  -6.02945 -6.08763 4.01533
LeftShoulder1  10.652 -19.8276 -39.3905
LeftArm  -27.2233 -43.7115 -22.0471
LeftForeArm  10.2628 -18.5288 -3.94015
LeftHand  -0.25398 0.0180481 5.50724
RightShoulder  3.90436 12.2421 18.2592
RightArm  11.6341 46.4724 50.476
RightForeArm  -31.5884 26.6469 7.14433
RightHand  -2.32912 10.1702 -17.7076
LeftUpLeg  -35.8314 26.0235 2.2597
LeftLeg  17.2785 -3.48712 -1.2169
LeftFoot  10.9762 1.97214 -10.3227
LeftToes  1.06247e-005 4.65854e-005 -8.18501e-006
424
root  -57.7407 38.141 -0.483753 -170.129 -7.8217 176.592
RightUpLeg  -38.0709 8.17247 -18.2447
RightLeg  45.4192 -3.09776 -3.68284
RightFoot  -4.66039 -0.378598 6.39785
RightToes  0.000482159 0.542163 -0.142577
Spine  51.4262 -5.65 8.74035
Spine1  12.9729 -1.48132 0.279708
HEad  -7.75157 -7.50592 4.4681
LeftShoulder1  10.7022 -20.7487 -37.9113
LeftArm  -27.9974 -46.4709 -21.8692
LeftForeArm  9.98722 -17.1967 -3.89415
LeftHand  -0.25398 0.0180481 5.50724
RightShoulder  3.70978 12.0229 17.2813
RightArm  9.7423 50.4632 48.5435
RightForeArm  -31.9521 23.9596 6.63485
RightHand  -2.09781 9.92547 -16.263
LeftUpLeg  -39.004 28.7341 -1.54111
LeftLeg  21.5583 -3.5187 -1.12633
LeftFoot  9.58401 1.32823 -7.46547
LeftToes  1.06247e-005 4.65854e-005 -8.18501e-006
425
root  -59.3395 38.3393 -0.395942 -168.731 -4.12589 176.749
RightUpLeg  -41.3883 4.24989 -16.7587
RightLeg  46.0105 -6.82751 -7.81146
RightFoot  1.05012 -0.224673 2.0683
RightToes  0.000482159 0.542163 -0.142577
Spine  53.7719 -5.41292 8.8182
Spine1  13.5622 -0.381154 -1.10204
HEad  -9.71396 -8.64128 4.73501
LeftShoulder1  10.6895 -21.6353 -36.3376
LeftArm  -29.2606 -49.6577 -20.9589
LeftForeArm  9.28515 -15.7951 -3.87876
LeftHand  -0.25398 0.0180481 5.50724
RightShoulder  3.39782 11.732 15.5485
RightArm  4.706 54.5979 46.5004
RightForeArm  -29.691 21.1501 6.73808
RightHand  -1.83576 9.53226 -14.6742
LeftUpLeg  -41.282 30.2609 -4.71861
LeftLeg  23.8849 -1.84714 -0.559072
LeftFoot  7.45465 0.57503 -3.76129
LeftToes  1.06247e-005 4.65854e-005 -8.18501e-006
426
root  -60.7885 38.5217 -0.354962 -166.903 -0.997055 177.331
RightUpLeg  -44.2972 -1.0229 -12.5924
RightLeg  45.0136 -8.5422 -9.35692
RightFoot  2.44711 0.0450917 -0.274807
RightToes  0.000482159 0.542163 -0.142577
Spine  55.7484 -5.07481 9.11562
Spine1  13.982 0.551792 -1.64601
HEad  -11.8723 -9.52737 4.92924
LeftShoulder1  10.672 -22.472 -34.9147
LeftArm  -31.6244 -53.2124 -19.5292
LeftForeArm  8.65083 -14.255 -3.71699
LeftHand  -0.25398 0.0180481 5.50724
RightShoulder  3.07338 11.3981 13.7139
RightArm  -2.88721 58.8553 42.9652
RightForeArm  -25.8994 18.547 7.2778
RightHand  -1.61964 9.18487 -13.3119
LeftUpLeg  -43.6568 30.6483 -7.18085
LeftLeg  25.1873 -0.0985099 0.28699
LeftFoot  6.10451 0.183353 -1.45168
LeftToes  1.06247e-005 4.65854e-005 -8.18501e-006
427
root  -62.0156 38.6854 -0.397194 -164.522 1.74884 177.968
RightUpLeg  -46.9131 -6.64431 -6.51799
RightLeg  42.4382 -6.55926 -6.70559
RightFoot  0.0120255 -0.302705 3.21408
RightToes  0.000482159 0.542163 -0.142577
Spine  57.4222 -4.43645 9.10102
Spine1  14.154 1.4705 -1.91259
HEad  -14.0188 -10.2047 5.19242
LeftShoulder1  10.6209 -23.3707 -33.3508
LeftArm  -35.1483 -56.7568 -17.3903
LeftForeArm  7.99466 -12.7181 -3.29197
LeftHand  -0.25398 0.0180481 5.50724
RightShoulder  2.83277 11.191 12.2299
RightArm  -11.338 62.8078 37.1724
RightForeArm  -23.2184 16.589 7.53831
RightHand  -1.43557 8.84759 -12.1253
LeftUpLeg  -46.4725 30.8074 -9.42328
LeftLeg  26.0121 1.11725 0.932798
LeftFoot  5.10916 0.0384483 -0.481401
LeftToes  1.06247e-005 4.65854e-005 -8.18501e-006
428
root  -63.0251 38.7993 -0.495674 -161.877 4.02979 178.23
RightUpLeg  -49.1832 -11.8903 0.604851
RightLeg  39.278 -2.80882 -2.73979
RightFoot  -2.95965 -0.614578 7.9872
RightToes  0.000482159 0.542163 -0.142577
Spine  59.0179 -3.79236 8.61356
Spine1  14.2011 2.27115 -2.43471
HEad  -15.9238 -10.6635 5.35441
LeftShoulder1  10.5165 -24.3543 -31.5581
LeftArm  -39.5282 -59.7516 -14.0558
LeftForeArm  7.00032 -11.6363 -2.71948
LeftHand  -0.25398 0.0180481 5.50724
RightShoulder  2.60265 11.0417 10.6937
RightArm  -20.8328 66.06 29.8694
RightForeArm  -21.1766 14.9727 7.48107
RightHand  -1.24737 8.56906 -10.8058
LeftUpLeg  -49.588 31.1105 -12.3272
LeftLeg  26.4439 1.63961 1.22826
LeftFoot  4.00243 -0.0911645 0.499268
LeftToes  1.06247e-005 4.65854e-005 -8.18501e-006
